<svg width="65" height="30" viewBox="0 0 65 30" fill="none" xmlns="http://www.w3.org/2000/svg">
<path d="M54.6364 14.2045H55.9091V11.0909H59.0227V9.81818H55.9091V6.70455H54.6364V9.81818H51.5227V11.0909H54.6364V14.2045Z" fill="#4B58DF"/>
<path d="M9.04545 16.3636V23.9545C9.04545 25.6591 7.875 26.8864 5.93182 26.8864C3.98864 26.8864 2.81818 25.6591 2.81818 23.9545V16.3636H1.40909V24.0682C1.40909 26.4545 3.19318 28.2045 5.93182 28.2045C8.67045 28.2045 10.4545 26.4545 10.4545 24.0682V16.3636H9.04545ZM14.4276 22.75C14.4276 21.2273 15.3707 20.3636 16.6548 20.3636C17.8991 20.3636 18.6548 21.1761 18.6548 22.5455V28H19.9957V22.4545C19.9957 20.2273 18.8082 19.1591 17.0412 19.1591C15.723 19.1591 14.9048 19.75 14.4957 20.6364H14.3821V19.2727H13.0866V28H14.4276V22.75ZM26.3324 19.2727H24.3778V18.3864C24.3778 17.5227 24.7415 17.0682 25.6278 17.0682C26.0142 17.0682 26.2415 17.1591 26.3778 17.2045L26.7642 16.0455C26.5597 15.9545 26.1506 15.8182 25.4915 15.8182C24.2415 15.8182 23.0369 16.5682 23.0369 18.0682V19.2727H21.6278V20.4091H23.0369V28H24.3778V20.4091H26.3324V19.2727ZM31.3977 28.1818C33.7614 28.1818 35.3523 26.3864 35.3523 23.6818C35.3523 20.9545 33.7614 19.1591 31.3977 19.1591C29.0341 19.1591 27.4432 20.9545 27.4432 23.6818C27.4432 26.3864 29.0341 28.1818 31.3977 28.1818ZM31.3977 26.9773C29.6023 26.9773 28.7841 25.4318 28.7841 23.6818C28.7841 21.9318 29.6023 20.3636 31.3977 20.3636C33.1932 20.3636 34.0114 21.9318 34.0114 23.6818C34.0114 25.4318 33.1932 26.9773 31.3977 26.9773ZM38.7401 16.3636H37.3991V28H38.7401V16.3636ZM44.4915 28.1818C46.1733 28.1818 46.7415 27.1364 47.0369 26.6591H47.196V28H48.4915V16.3636H47.1506V20.6591H47.0369C46.7415 20.2045 46.2188 19.1591 44.5142 19.1591C42.3097 19.1591 40.7869 20.9091 40.7869 23.6591C40.7869 26.4318 42.3097 28.1818 44.4915 28.1818ZM44.6733 26.9773C42.9915 26.9773 42.1278 25.5 42.1278 23.6364C42.1278 21.7955 42.9688 20.3636 44.6733 20.3636C46.3097 20.3636 47.1733 21.6818 47.1733 23.6364C47.1733 25.6136 46.2869 26.9773 44.6733 26.9773Z" fill="#4B58DF"/>
</svg>
